<svg t="1693987324440" class="icon" viewBox="0 0 1024 1024" version="1.1" xmlns="http://www.w3.org/2000/svg" p-id="10946" width="200" height="200"><path d="M848.9984 255.6928c-11.6224-3.584-26.8288-2.5088-39.3216 8.6528-8.5504-9.3696-20.992-15.5136-36.608-13.5168-22.7328 2.8672-38.656 21.7088-38.656 45.8752 0 20.8384 11.52 42.7008 34.2016 64.9216 15.872 15.5648 31.6416 25.7024 32.3072 26.1632 2.2528 1.4336 4.8128 2.1504 7.3728 2.1504s5.1712-0.7168 7.424-2.1504c0.5632-0.3584 14.08-9.1136 28.5184-22.5792 20.3776-18.9952 32.4608-37.632 35.7888-55.3984 4.4544-24.0128-8.8576-47.2576-31.0272-54.1184z m4.096 48.9472c-3.9424 20.736-29.2864 43.3152-44.8512 54.8864-17.152-12.8-46.4896-39.424-46.4896-62.8736 0-12.4928 7.936-17.8688 14.6944-18.7392 0.512-0.0512 1.1776-0.1024 1.9456-0.1024 4.5568 0 13.2096 1.8944 16.64 15.36 1.4336 5.632 6.2976 9.7792 12.1344 10.24 5.7856 0.512 11.264-2.7648 13.6704-8.0896 4.864-11.0592 12.1856-15.9744 20.1216-13.5168 7.4752 2.3552 14.336 11.1616 12.1344 22.8352zM678.9632 131.9936c-10.8544-3.3792-24.9856-2.4576-36.7616 7.5776-8.8064-9.1648-21.0944-13.824-34.304-12.1856-21.6576 2.7136-36.7616 20.6336-36.7616 43.6224 0 19.6608 10.8032 40.2432 32.0512 61.1328 14.848 14.592 29.5936 24.064 30.208 24.4736 2.2528 1.4336 4.8128 2.1504 7.3728 2.1504s5.1712-0.768 7.424-2.2016c0.512-0.3584 13.1584-8.5504 26.6752-21.0944 19.0976-17.8176 30.4128-35.328 33.6384-52.0704 4.2496-22.7328-8.3968-44.8512-29.5424-51.4048z m2.6112 46.2848c-3.5328 18.7904-26.368 39.2704-40.8064 50.0736-5.0176-3.7376-11.9296-9.3184-18.7904-16.0768-15.4112-15.2064-23.552-29.4912-23.552-41.2672 0-10.9568 6.912-15.7184 12.8512-16.4864 0.4096-0.0512 0.9728-0.1024 1.6384-0.1024 3.9424 0 11.52 1.6384 14.592 13.568 1.4336 5.632 6.2976 9.7792 12.1344 10.24 5.8368 0.4608 11.3152-2.7648 13.6192-8.1408 2.56-5.7344 8.192-14.9504 17.6128-12.032 6.656 2.0992 12.6464 9.8816 10.7008 20.224zM243.9168 453.0688l-0.5632 0.6144c-0.1024-0.1024-0.2048-0.2048-0.256-0.3072 0.256-0.1024 0.5632-0.2048 0.8192-0.3072z" fill="#383838" p-id="10947"></path><path d="M243.9168 453.0688l-0.5632 0.6144c-0.1024-0.1024-0.2048-0.2048-0.256-0.3072 0.256-0.1024 0.5632-0.2048 0.8192-0.3072z" fill="#383838" p-id="10948"></path><path d="M243.9168 453.0688l-0.5632 0.6144c-0.1024-0.1024-0.2048-0.2048-0.256-0.3072 0.256-0.1024 0.5632-0.2048 0.8192-0.3072z" fill="#383838" p-id="10949"></path><path d="M842.8032 544.4096c0-7.5264-6.144-13.6704-13.6704-13.6704H676.864c27.5968-26.5728 55.808-61.7472 62.8736-98.9696 7.7824-41.0624-14.7968-80.8448-52.5312-92.5696-28.2112-8.7552-55.808 0.9728-75.264 25.1392-14.4896-23.3984-37.376-34.1504-59.3408-34.9184l16.8448-18.5856a13.6704 13.6704 0 0 0-0.9216-19.3024l-87.552-79.4112c-2.7136-2.4064-6.1952-3.6864-9.8816-3.5328-3.6352 0.1536-7.0144 1.792-9.472 4.4544l-35.4816 39.168-61.44-55.0912c-11.3152-10.1376-26.7264-13.4144-41.216-8.8064-14.4896 4.6592-25.088 16.2816-28.416 31.1296L268.032 340.992a78.8992 78.8992 0 0 0-44.3904 24.7808 78.99136 78.99136 0 0 0-20.1728 45.4144l-116.8896 38.2464c-14.4384 4.7104-25.0368 16.4352-28.2112 31.2832-0.6656 3.072-0.9728 6.144-0.9728 9.1648 0 11.7248 4.864 22.8352 13.7728 31.0272l60.7232 55.7056-37.0688 40.8576c-5.0688 5.5808-4.6592 14.2336 0.9728 19.3024l87.552 79.36c2.5088 2.304 5.7856 3.5328 9.1648 3.5328h0.6656c3.6352-0.1536 7.0144-1.792 9.472-4.4544l120.32-132.6592 0.2048 272.896c0 22.784 18.5344 41.3696 41.3696 41.3696h437.1968c22.784 0 41.3696-18.5344 41.3696-41.3696l-0.3072-311.04z m-292.1472-187.7504c25.9584 0 40.8576 21.504 45.824 41.0624a13.696 13.696 0 0 0 12.1344 10.2912 13.6192 13.6192 0 0 0 13.6192-8.1408c12.6976-28.7744 33.9456-41.6768 56.832-34.56 20.7872 6.4512 39.68 30.1568 33.792 61.3376-7.5776 40.0384-47.4624 79.5648-77.1584 104.0896H583.68c-7.8336-6.4512-16.384-14.0288-24.8832-22.3744-25.4464-25.0368-55.7056-62.72-55.7056-100.2496 0-31.6928 20.7872-48.4864 41.3696-50.9952 2.0992-0.3072 4.1472-0.4608 6.1952-0.4608z m-8.1408 174.08h-172.544l60.2112-66.4064 0.0512-0.0512 45.6704-50.3296c2.6624 44.6464 35.1744 86.4256 66.6112 116.7872zM428.0832 290.7136l9.1648-10.1376 9.1648-10.1376 26.2144-28.8768 67.2768 61.0304-120.832 133.2224-44.1856-40.0896-11.6736-10.5984-11.4176-10.3424 0.4608-0.512 75.8272-83.5584zM321.7408 225.4336c1.6896-7.5776 7.6288-10.24 10.0864-11.0592a15.104 15.104 0 0 1 9.5232 0c1.6896 0.5632 3.4304 1.5872 5.12 3.072l61.3376 54.9888-56.8832 62.6688 9.7792-34.6624c2.048-7.2704-2.2016-14.848-9.472-16.896-7.2704-2.048-14.848 2.2016-16.896 9.472l-15.616 55.4496c-7.1168-3.6864-14.7456-6.1952-22.6816-7.5776l25.7024-115.456zM230.4512 416.768c0.256-5.0688 1.2288-10.1376 2.9184-14.9504 2.2016-6.3488 5.7344-12.3392 10.496-17.6128 5.0688-5.5808 11.1616-9.984 17.92-12.8512 4.5568-1.9968 9.3696-3.2768 14.336-3.84 1.28-0.1536 2.56-0.3072 3.84-0.3584a44.50304 44.50304 0 0 1 10.1376 0.4608 51.91168 51.91168 0 0 1 22.8864 9.2672L302.08 388.9664l-10.0864 11.1104-9.472 10.4448-7.168 7.8848-9.472 10.4448-10.0352 11.0592-11.9296 13.2096-0.5632 0.6144c-0.1024-0.1024-0.2048-0.2048-0.256-0.3072-5.7856-6.656-9.5744-14.4384-11.4176-22.5792-1.024-4.6592-1.4336-9.3696-1.2288-14.08z m-140.8 84.0192c-5.7344-5.2736-5.0688-11.7248-4.5568-14.2336 0.5632-2.5088 2.6112-8.6528 9.984-11.1104l110.5408-36.1984c2.3552 9.0624 6.3488 17.8176 11.9296 25.7024l-54.0672 24.7296c-6.8608 3.1232-9.8816 11.264-6.7584 18.1248 3.1232 6.8608 11.264 9.8816 18.1248 6.7584l22.7328-10.3936-47.3088 52.1728-60.6208-55.552z m101.888 186.0608l-67.2768-61.0304 27.7504-30.6176 9.216-10.1376 9.1648-10.1376L246.272 491.2128l0.7168-0.8192 3.2768-3.584 9.1648 8.2944 0.4096 0.3584 11.3152 10.24 46.4896 42.1376-126.1056 139.008z m110.08-190.464l-12.8512-11.6224-10.9568-9.9328-4.7616-4.3008-4.4032-3.9936 14.2848-15.7184 32.6656-35.9936 14.7968-16.2816 3.1232-3.4304 11.3664 10.3424 2.4064 2.2016 14.6944 13.312 38.7584 35.1744-64.8192 71.4752-34.304-31.232z m500.0704 373.1968h-142.4384l-0.2048-280.2176c0-3.7888-1.536-7.168-3.9936-9.6256-2.4576-2.4576-5.888-3.9936-9.6768-3.9936a13.6704 13.6704 0 0 0-13.6704 13.6704l0.2048 280.1664h-96.512l-0.2048-281.6c0-7.5264-6.144-13.6704-13.6704-13.6704s-13.6704 6.144-13.6704 13.6704l0.2048 281.5488H364.4416c-7.7312 0-14.0288-6.2976-14.0288-14.0288L350.208 558.08h465.2544l0.256 297.5232c0 7.68-6.2976 13.9776-14.0288 13.9776z" fill="#383838" p-id="10950"></path></svg>