<svg xmlns="http://www.w3.org/2000/svg" xmlns:xlink="http://www.w3.org/1999/xlink" t="1693468079621" class="icon" viewBox="0 0 1024 1024" version="1.1" p-id="6239" width="100%" height="100%"><path d="M165.8368 334.8992s114.5856 222.3104 351.2832 222.3104c177.5616 0 330.8544-123.1872 351.2832-222.3104-12.9024 149.0944-64.1024 398.592-351.2832 398.592s-370.2784-252.416-351.2832-398.592z" fill="#67c23a" p-id="6240"/><path d="M901.888 379.4432c0-63.232-15.6672-125.952-45.312-181.3504a30.8736 30.8736 0 0 0-23.0912-15.9744c-50.3296-6.656-111.0016 10.4448-160.1536 29.7472-31.0784-56.6784-90.0096-128-140.3904-158.3616a30.67904 30.67904 0 0 0-33.1264 0.9216c-52.48 35.7376-103.7824 105.8304-134.4512 158.208-49.0496-25.3952-120.2688-45.8752-168.3968-31.3856a30.59712 30.59712 0 0 0-18.1248 14.7456c-30.4128 55.9616-46.4384 119.3984-46.4384 183.3984 0 201.8304 156.2112 367.7184 354.048 383.4368v176.8448c0 16.9472 13.7728 30.72 30.72 30.72s30.72-13.7728 30.72-30.72v-176.8448c197.7856-15.7184 353.9968-181.6064 353.9968-383.3856zM517.12 702.7712c-178.2784 0-323.328-145.0496-323.328-323.328 0-48.9984 11.1616-97.5872 32.4608-141.312 34.7136-2.6112 96.512 16.3328 132.9664 42.2912a30.5408 30.5408 0 0 0 25.2416 4.7616c8.704-2.1504 16.0256-8.0384 20.0192-16.0768 21.1968-42.3424 67.9936-112.3328 113.4592-151.1936 43.6224 34.6112 94.976 103.2704 112.0256 145.1008 3.1232 7.68 9.2672 13.7728 16.9472 16.896 7.7312 3.1232 16.3328 2.9696 23.9104-0.4096 55.1936-24.4224 103.68-37.4272 139.0592-37.4272a324.25472 324.25472 0 0 1 30.5152 137.3184c0.0512 178.3296-144.9984 323.3792-323.2768 323.3792z" fill="#67c23a" p-id="6241"/><path d="M405.4528 936.0896c-8.6016 0-17.1008-3.584-23.1936-10.5472-81.3568-93.44-223.0784-94.3616-226.6112-94.3616h-0.256c-16.896 0-30.6176-13.6192-30.72-30.5152-0.1024-16.9472 13.568-30.8224 30.5152-30.9248 7.0144 0.1024 173.1072 0.256 273.3568 115.456a30.6688 30.6688 0 0 1-3.0208 43.3152 29.952 29.952 0 0 1-20.0704 7.5776zM629.76 936.0896c-7.168 0-14.336-2.5088-20.1728-7.5264-12.8-11.1616-14.1312-30.5664-3.0208-43.3152 100.2496-115.2 266.24-115.4048 273.3568-115.456 16.9472 0.1024 30.6176 13.9264 30.5152 30.9248-0.1024 16.896-13.824 30.5152-30.72 30.5152h-0.1536c-1.9968 0-145.3568 0.9216-226.7136 94.3616a30.36672 30.36672 0 0 1-23.0912 10.496z" fill="#67c23a" p-id="6242"/></svg>