<svg xmlns="http://www.w3.org/2000/svg" xmlns:xlink="http://www.w3.org/1999/xlink" t="1693468378919" class="icon" viewBox="0 0 1024 1024" version="1.1" p-id="14245" width="100%" height="100%"><path d="M592.14 601.37m-310.22 0a310.22 310.22 0 1 0 620.44 0 310.22 310.22 0 1 0-620.44 0Z" fill="#D6F3F4" p-id="14246"/><path d="M896.46 911.67H129.54c-17.42 0-31.54-13.44-31.54-30s14.12-30 31.54-30h766.92c17.42 0 31.54 13.43 31.54 30s-14.12 30-31.54 30z" fill="#4DC5C3" p-id="14247"/><path d="M475.74 797.69a38.37 38.37 0 0 1-4.28-0.24l-146.12-15.83a39.85 39.85 0 0 1-34.92-31.94L262.11 607.9a40.17 40.17 0 0 1 9.61-34.72l409-449.38a40 40 0 0 1 56.61-2.57L910 279.42a40.09 40.09 0 0 1 2.64 56.31L505.4 784.55a40.08 40.08 0 0 1-29.66 13.14zM461 744.23h-0.05z m-114.61-20.68l121.41 13.16 387-426.51L711.62 179 322.93 606z m378.76-559.39z" fill="#182038" p-id="14248"/><path d="M699.38 282.58L587.24 406.86M588.84 436.81A30 30 0 0 1 565 386.76l112.11-124.28a30 30 0 0 1 44.54 40.2L609.51 427a29.85 29.85 0 0 1-20.67 9.81z" fill="#4DC5C3" p-id="14249"/></svg>