<svg xmlns="http://www.w3.org/2000/svg" xmlns:xlink="http://www.w3.org/1999/xlink" t="1693467060248"
  class="icon" viewBox="0 0 1024 1024" version="1.1" p-id="1526" width="100%" height="100%">
  <path
    d="M606.933333 394.88h151.466667v42.666667h-151.466667zM606.933333 516.906667h151.466667v42.666666h-151.466667z"
    fill="#2FDDDC" p-id="1527" />
  <path
    d="M533.333333 790.4H209.066667A59.946667 59.946667 0 0 1 149.333333 730.453333V224a59.946667 59.946667 0 0 1 59.733334-59.733333h187.52A136.746667 136.746667 0 0 1 533.333333 301.013333zM209.066667 206.933333a17.066667 17.066667 0 0 0-17.066667 17.066667v506.453333a17.066667 17.066667 0 0 0 17.066667 17.28H490.666667V301.013333a94.293333 94.293333 0 0 0-94.08-94.08z"
    fill="#5879FB" p-id="1528" />
  <path
    d="M814.933333 790.4H490.666667V301.013333a136.746667 136.746667 0 0 1 136.746666-136.746666h187.52a59.946667 59.946667 0 0 1 59.733334 59.733333v506.453333a59.946667 59.946667 0 0 1-59.733334 59.946667z m-281.6-42.666667h281.6a17.066667 17.066667 0 0 0 17.066667-17.28V224a17.066667 17.066667 0 0 0-17.066667-17.066667h-187.52A94.293333 94.293333 0 0 0 533.333333 301.013333z"
    fill="#5879FB" p-id="1529" />
  <path d="M490.666667 769.066667h42.666666v69.333333h-42.666666z" fill="#5879FB" p-id="1530" />
</svg>